<?xml version="1.0" encoding="UTF-8" standalone="no"?>
<!-- Uploaded to: SVG Repo, www.svgrepo.com, Generator: SVG Repo Mixer Tools -->

<svg
   fill="#000000"
   width="800px"
   height="800px"
   viewBox="0 0 24 24"
   role="img"
   version="1.1"
   id="svg1"
   sodipodi:docname="neosocket.svg"
   xml:space="preserve"
   inkscape:version="1.3.2 (091e20e, 2023-11-25, custom)"
   xmlns:inkscape="http://www.inkscape.org/namespaces/inkscape"
   xmlns:sodipodi="http://sodipodi.sourceforge.net/DTD/sodipodi-0.dtd"
   xmlns="http://www.w3.org/2000/svg"
   xmlns:svg="http://www.w3.org/2000/svg"
   xmlns:rdf="http://www.w3.org/1999/02/22-rdf-syntax-ns#"
   xmlns:cc="http://creativecommons.org/ns#"
   xmlns:dc="http://purl.org/dc/elements/1.1/"><defs
     id="defs1" /><sodipodi:namedview
     id="namedview1"
     pagecolor="#ffffff"
     bordercolor="#000000"
     borderopacity="0.25"
     inkscape:showpageshadow="2"
     inkscape:pageopacity="0.0"
     inkscape:pagecheckerboard="0"
     inkscape:deskcolor="#d1d1d1"
     inkscape:zoom="0.5225"
     inkscape:cx="615.311"
     inkscape:cy="330.14354"
     inkscape:window-width="1920"
     inkscape:window-height="1009"
     inkscape:window-x="1912"
     inkscape:window-y="-8"
     inkscape:window-maximized="1"
     inkscape:current-layer="layer1" /><title
     id="title1">Rust icon</title><path
     d="m 23.687,11.709 -0.995,-0.616 c -0.0083,-0.09676 -0.01763,-0.193436 -0.028,-0.29 l 0.855,-0.797 C 23.702785,9.831735 23.641612,9.5253327 23.405,9.435 L 22.312,9.026 C 22.284987,8.9315037 22.256316,8.8374892 22.226,8.744 L 22.908,7.797 C 23.057178,7.5905756 22.936469,7.2993568 22.685,7.259 L 21.533,7.072 C 21.48804,6.984935 21.4417,6.8985911 21.394,6.813 L 21.878,5.75 C 21.928,5.642 21.917,5.516 21.851,5.418 21.785,5.32 21.673,5.262 21.554,5.266 l -1.17,0.041 C 20.323969,5.2309975 20.262288,5.156313 20.199,5.083 L 20.468,3.944 C 20.525803,3.6964161 20.303584,3.4741971 20.056,3.532 L 18.917,3.801 C 18.842651,3.7385462 18.767647,3.6768761 18.692,3.616 l 0.041,-1.17 C 18.745188,2.1901798 18.48087,2.0132395 18.249,2.122 L 17.186,2.607 C 17.1,2.56 17.014,2.513 16.927,2.468 L 16.739,1.315 C 16.696511,1.0652233 16.407734,0.94552595 16.201,1.092 L 15.253,1.774 C 15.1595,1.744017 15.065491,1.71568 14.971,1.689 L 14.562,0.596 C 14.471667,0.35938769 14.165265,0.29821456 13.991,0.482 L 13.194,1.338 C 13.097488,1.3271332 13.000809,1.3177987 12.904,1.31 L 12.288,0.315 c -0.133635,-0.21643372 -0.448365,-0.21643372 -0.582,0 L 11.09,1.31 C 10.993,1.318 10.896,1.328 10.8,1.338 L 10.002,0.482 C 9.8285639,0.29562512 9.519573,0.35731507 9.431,0.596 L 9.022,1.689 C 8.927,1.716 8.834,1.745 8.74,1.774 L 7.793,1.092 C 7.5862657,0.94552595 7.2974891,1.0652233 7.255,1.315 L 7.067,2.468 C 6.9799353,2.5129575 6.8935911,2.5592967 6.808,2.607 L 5.745,2.122 C 5.51335,2.0160517 5.251328,2.1914549 5.261,2.446 l 0.041,1.17 C 5.226,3.676 5.151,3.738 5.077,3.801 L 3.938,3.532 C 3.6904161,3.4741971 3.4681971,3.6964161 3.526,3.944 L 3.794,5.083 C 3.732,5.157 3.67,5.232 3.61,5.307 L 2.44,5.266 C 2.1854549,5.256328 2.0100517,5.51835 2.116,5.75 L 2.601,6.813 C 2.5532684,6.8985756 2.5069289,6.9849203 2.462,7.072 L 1.31,7.259 C 1.0602233,7.3014891 0.94052595,7.5902657 1.087,7.797 L 1.769,8.744 C 1.739,8.838 1.711,8.931 1.683,9.026 L 0.59,9.435 C 0.35338769,9.5253327 0.29221456,9.831735 0.476,10.006 l 0.855,0.797 c -0.010867,0.09651 -0.020201,0.193191 -0.028,0.29 l -0.995,0.616 c -0.21888267,0.132261 -0.21888267,0.449739 0,0.582 l 0.995,0.616 c 0.008,0.097 0.018,0.194 0.028,0.29 l -0.855,0.798 c -0.18637488,0.173436 -0.12468493,0.482427 0.114,0.571 l 1.093,0.409 c 0.027,0.095 0.056,0.189 0.086,0.282 l -0.682,0.947 c -0.15065278,0.206598 -0.028757,0.499365 0.224,0.538 l 1.152,0.187 c 0.045,0.087 0.091,0.173 0.139,0.259 l -0.485,1.063 c -0.1059483,0.23165 0.069455,0.493672 0.324,0.484 L 3.61,18.694 c 0.061,0.076 0.122,0.151 0.185,0.225 l -0.268,1.14 c -0.058202,0.247574 0.1645684,0.469804 0.412,0.411 l 1.139,-0.268 c 0.074,0.063 0.149,0.124 0.225,0.184 l -0.041,1.17 c -0.011397,0.255384 0.2525413,0.431524 0.484,0.323 l 1.063,-0.484 c 0.086,0.048 0.172,0.094 0.259,0.139 l 0.188,1.152 c 0.041883,0.250197 0.3309309,0.370544 0.538,0.224 l 0.947,-0.682 c 0.094,0.03 0.187,0.059 0.282,0.086 l 0.409,1.093 c 0.087666,0.239745 0.397994,0.301702 0.571,0.114 l 0.798,-0.855 c 0.096,0.011 0.193,0.02 0.29,0.029 l 0.616,0.995 c 0.134299,0.215239 0.447701,0.215239 0.582,0 l 0.616,-0.995 c 0.097,-0.009 0.194,-0.018 0.29,-0.029 l 0.797,0.855 c 0.174265,0.183785 0.480667,0.122612 0.571,-0.114 l 0.409,-1.093 c 0.095,-0.027 0.189,-0.056 0.282,-0.086 l 0.947,0.682 c 0.206598,0.150653 0.499365,0.02876 0.538,-0.224 l 0.188,-1.152 c 0.087,-0.045 0.173,-0.092 0.259,-0.139 l 1.063,0.484 c 0.231131,0.104367 0.491684,-0.06951 0.484,-0.323 l -0.041,-1.17 c 0.076,-0.06 0.151,-0.121 0.224,-0.184 l 1.139,0.268 c 0.247058,0.05749 0.468889,-0.163803 0.412,-0.411 l -0.268,-1.14 c 0.062,-0.074 0.124,-0.149 0.184,-0.225 l 1.17,0.041 c 0.25582,0.01219 0.43276,-0.25213 0.324,-0.484 l -0.484,-1.063 c 0.047,-0.086 0.094,-0.172 0.139,-0.259 l 1.152,-0.187 c 0.249777,-0.04249 0.369474,-0.331266 0.223,-0.538 l -0.682,-0.947 0.086,-0.282 1.093,-0.409 c 0.238685,-0.08857 0.300375,-0.397564 0.114,-0.571 l -0.855,-0.798 c 0.01,-0.096 0.02,-0.193 0.028,-0.29 l 0.995,-0.616 c 0.218883,-0.132261 0.218883,-0.449739 0,-0.582 z m -6.659,8.253 c -0.919333,-0.196667 -0.624333,-1.575667 0.295,-1.379 0.919333,0.197333 0.623333,1.576333 -0.296,1.379 z M 16.69,17.676 7.235,17.643 5.78,17.955 18.179,17.996 Z M 6.897,19.928 C 5.9776671,20.125333 5.6816671,18.746333 6.601,18.549 7.5203329,18.351667 7.8163329,19.730667 6.897,19.928 Z M 4.211,9.036 C 4.6324609,9.9097486 3.2886156,10.506549 2.923,9.608 2.5797109,8.7643209 3.8152758,8.2156073 4.211,9.036 Z M 3.386,10.993 4.902,10.319 C 5.2263688,10.175023 5.3723913,9.7951848 5.228,9.471 L 4.916,8.765 3.387,10.992 Z m 17.278,0.931 c 0,0.216 -0.008,0.431 -0.024,0.643 C 17.396052,15.765546 11.04257,9.7387549 5.545,6.144 6.8154945,4.7233787 8.5192363,3.7616627 10.392,3.408 l 1.084,1.137 c 0.244294,0.2570934 0.651069,0.2665116 0.907,0.021 l 1.212,-1.16 c 2.501204,0.469102 4.669909,2.0136324 5.931,4.224 l -0.83,1.875 c -0.1432,0.3242149 0.0025,0.703202 0.326,0.848 l 1.598,0.71 c 0.028,0.284 0.042,0.57 0.042,0.861 z M 11.477,2.442 c 0.679333,-0.6479997 1.651333,0.3710003 0.972,1.019 -0.677036,0.5841163 -1.587412,-0.3702799 -0.972,-1.019 z m 8.237,6.628 c 0.157,-0.356 0.573,-0.516 0.928,-0.358 0.575003,0.2537298 0.555669,1.0760491 -0.0305,1.302568 C 20.025321,10.241088 19.45804,9.6454582 19.713,9.071 Z"
     id="path1"
     sodipodi:nodetypes="ccccccccccccscccccccccccccccccccccccccccccccccccccccccccccccccccccccccccccccccccscccccccccccccccccccccccccccccccccccccccccccccccccccccccccccssssssccccccccccccccccccccccccscc" /><g
     inkscape:groupmode="layer"
     id="layer1"
     inkscape:label="Layer 1"><path
       d="m 8.3325873,6.6442594 c 0.138907,0.02976 0.160516,0.04526 1.22451,0.889053 0.7964487,0.631807 1.0156227,0.800564 1.0238587,0.789241 0.0053,-0.0073 0.22946,-0.289149 0.495978,-0.626657 0.379702,-0.478487 0.494946,-0.617399 0.52479,-0.631807 0.02691,-0.01346 0.06173,-0.01957 0.108044,-0.01957 0.05969,0 0.07408,0.0041 0.113222,0.0318 0.05455,0.03792 1.86249,1.471466 1.983911,1.572309 0.231539,0.19244 0.486718,0.459965 0.665765,0.696633 0.463051,0.611226 0.734705,1.2831636 0.842753,2.0826956 0.02487,0.181106 0.03099,0.703837 0.01019,0.907579 -0.09761,0.973455 -0.440773,1.445666 -0.395032,1.478654 0.208871,0.157458 3.159031,2.509733 3.201221,2.55295 0.112161,0.114201 0.19138,0.255187 0.235657,0.417775 0.01957,0.072 0.02283,0.111142 0.02283,0.235657 -10e-4,0.130672 -0.0041,0.160517 -0.02895,0.240795 -0.06483,0.215068 -0.197578,0.402331 -0.368368,0.518614 -0.0751,0.05145 -0.209931,0.112162 -0.301503,0.136828 -0.100828,0.02773 -0.32617,0.03303 -0.416743,0.01019 -0.127614,-0.03099 -0.238716,-0.0782 -0.325151,-0.136869 -1.255952,-0.849015 -2.982313,-2.682384 -3.301025,-2.442828 -0.546415,0.419858 -1.218349,0.706948 -1.916014,0.819106 -0.394095,0.06377 -0.881853,0.06686 -1.279046,0.0094 -0.7058917,-0.102907 -1.3737167,-0.377623 -1.9417247,-0.798504 -0.188322,-0.139927 -1.988029,-1.571286 -2.023014,-1.609358 -0.02365,-0.02569 -0.04114,-0.05867 -0.04937,-0.09157 -0.02487,-0.103926 -0.03099,-0.09467 0.509354,-0.774837 0.7623509,-0.768328 0.2326596,-0.833616 -0.518618,-1.430311 -0.553595,-0.439322 -1.028996,-0.823138 -1.054718,-0.852983 -0.259305,-0.297385 -0.162596,-0.7799806 0.19138,-0.9538786 0.19138,-0.09467 0.372486,-0.09467 0.558749,-0.001 0.06483,0.0318 0.297385,0.212989 1.085595,0.8386306 l 1.003273,0.796446 c 0.7163387,-0.80234 0.8107306,-0.94022 1.573342,-1.9943916 -0.0053,-0.0053 -0.446584,-0.353975 -0.981665,-0.777927 -0.55669,-0.44041 -1.005332,-0.802618 -1.049581,-0.847894 -0.123496,-0.125535 -0.174909,-0.252088 -0.174909,-0.428061 0,-0.178007 0.05247,-0.304602 0.180087,-0.432183 0.09365,-0.09467 0.169771,-0.139968 0.289149,-0.169771 z"
       id="path1-6"
       style="fill:#ffffff;fill-opacity:1;stroke:#000000;stroke-width:0.694073;stroke-dasharray:none;stroke-opacity:1"
       sodipodi:nodetypes="cccccsccccccccccccccccccccccccccccccsccc" /></g><metadata
     id="metadata1"><rdf:RDF><cc:Work
         rdf:about=""><dc:title>Rust icon</dc:title></cc:Work></rdf:RDF></metadata></svg>
